<svg xmlns="http://www.w3.org/2000/svg" version="1.1">
<line x1="275" y1="25" x2="200" y2="125" stroke="black" />
<line x1="275" y1="25" x2="350" y2="125" stroke="black" />
<line x1="200" y1="125" x2="50" y2="225" stroke="black" />
<line x1="200" y1="125" x2="200" y2="225" stroke="black" />
<line x1="350" y1="125" x2="350" y2="225" stroke="black" />
<line x1="350" y1="125" x2="500" y2="225" stroke="black" />
<rect x="225" y="0" width="100" height="50" fill="white" stroke="black" />
<text x="235" y="25" font-size="12" fill="black">Debbie</text>
<rect x="150" y="100" width="100" height="50" fill="white" stroke="black" />
<text x="160" y="125" font-size="12" fill="black">Ian</text>
<rect x="300" y="100" width="100" height="50" fill="white" stroke="black" />
<text x="310" y="125" font-size="12" fill="black">Liam</text>
<rect x="0" y="200" width="100" height="50" fill="white" stroke="black" />
<text x="10" y="225" font-size="12" fill="black">Fiona</text>
<rect x="150" y="200" width="100" height="50" fill="white" stroke="black" />
<text x="160" y="225" font-size="12" fill="black">Phillip</text>
<rect x="300" y="200" width="100" height="50" fill="white" stroke="black" />
<text x="310" y="225" font-size="12" fill="black">Carl</text>
<rect x="450" y="200" width="100" height="50" fill="white" stroke="black" />
<text x="460" y="225" font-size="12" fill="black">Frank</text>
</svg>